<svg viewBox="0 0 100 100" xmlns="http://www.w3.org/2000/svg" id="Network-Connection-1-1--Streamline-Ux">
  <desc>
    Network Connection 1 1 Streamline Illustration: https://streamlinehq.com
  </desc>
  <path d="M10 54.937a40 40 0 1 0 80 0 40 40 0 1 0 -80 0Z" fill="#d9edff" stroke-width="1"></path>
  <path d="M23.837 84.064a1.87 1.87 0 0 1 -1.857 -1.676c-0.414 -4 1.1 -9.545 3.684 -13.481a1.869 1.869 0 0 1 3.124 2.051C26.7 74.134 25.374 78.882 25.7 82a1.868 1.868 0 0 1 -1.666 2.051 1.814 1.814 0 0 1 -0.197 0.013Z" fill="#ffffff" stroke="#020064" stroke-linecap="round" stroke-linejoin="round" stroke-width="1"></path>
  <path d="M37.152 96.91a6.723 6.723 0 0 1 -0.015 -3.672c2.476 -7.429 -0.129 -12.654 -1.459 -16.314a1.869 1.869 0 0 0 -3.513 1.276c4.59 14.54 -8.125 8.555 -8.287 -3.652 0.033 -1.531 0.018 -3.846 0.008 -5.537 0 -0.665 -0.008 -1.242 -0.008 -1.649a1.869 1.869 0 1 0 -3.737 0c0 0.413 0 1 0.008 1.672 0.01 1.67 0.025 3.955 -0.008 5.432 -0.206 9.313 6.033 15.552 6.092 22.442Z" fill="#ffffff" stroke-width="1"></path>
  <path d="M37.152 96.91a6.723 6.723 0 0 1 -0.015 -3.672c2.476 -7.429 -0.129 -12.654 -1.459 -16.314a1.869 1.869 0 0 0 -3.513 1.276c4.59 14.54 -8.125 8.555 -8.287 -3.652 0.033 -1.531 0.018 -3.846 0.008 -5.537 0 -0.665 -0.008 -1.242 -0.008 -1.649a1.869 1.869 0 1 0 -3.737 0c0 0.413 0 1 0.008 1.672 0.01 1.67 0.025 3.955 -0.008 5.432 -0.206 9.313 6.033 15.552 6.092 22.442" fill="none" stroke="#020064" stroke-linecap="round" stroke-linejoin="round" stroke-width="1"></path>
  <path d="M76.163 84.064a1.87 1.87 0 0 0 1.857 -1.676c0.414 -4 -1.1 -9.545 -3.684 -13.481a1.869 1.869 0 0 0 -3.124 2.051C73.3 74.134 74.626 78.882 74.3 82a1.868 1.868 0 0 0 1.666 2.051 1.814 1.814 0 0 0 0.197 0.013Z" fill="#ffffff" stroke="#020064" stroke-linecap="round" stroke-linejoin="round" stroke-width="1"></path>
  <path d="M62.848 96.91a6.723 6.723 0 0 0 0.015 -3.672c-2.476 -7.429 0.129 -12.654 1.459 -16.314a1.869 1.869 0 0 1 3.513 1.276c-4.59 14.54 8.125 8.555 8.287 -3.652 -0.033 -1.531 -0.018 -3.846 -0.008 -5.537 0 -0.665 0.008 -1.242 0.008 -1.649a1.869 1.869 0 1 1 3.737 0c0 0.413 0 1 -0.008 1.672 -0.01 1.67 -0.025 3.955 0.008 5.432 0.206 9.313 -6.033 15.552 -6.092 22.442Z" fill="#ffffff" stroke-width="1"></path>
  <path d="M62.848 96.91a6.723 6.723 0 0 0 0.015 -3.672c-2.476 -7.429 0.129 -12.654 1.459 -16.314a1.869 1.869 0 0 1 3.513 1.276c-4.59 14.54 8.125 8.555 8.287 -3.652 -0.033 -1.531 -0.018 -3.846 -0.008 -5.537 0 -0.665 0.008 -1.242 0.008 -1.649a1.869 1.869 0 1 1 3.737 0c0 0.413 0 1 -0.008 1.672 -0.01 1.67 -0.025 3.955 0.008 5.432 0.206 9.313 -6.033 15.552 -6.092 22.442" fill="none" stroke="#020064" stroke-linecap="round" stroke-linejoin="round" stroke-width="1"></path>
  <path d="m65.864 43.736 15.279 -6.766" fill="none" stroke="#020064" stroke-linecap="round" stroke-linejoin="round" stroke-width="1"></path>
  <path d="m65.864 29.824 6.157 -14.874" fill="none" stroke="#020064" stroke-linecap="round" stroke-linejoin="round" stroke-width="1"></path>
  <path d="M56.772 17.005 50 5.827" fill="none" stroke="#020064" stroke-linecap="round" stroke-linejoin="round" stroke-width="1"></path>
  <path d="m42.48 17.685 -14.501 -2.734" fill="none" stroke="#020064" stroke-linecap="round" stroke-linejoin="round" stroke-width="1"></path>
  <path d="m32.135 41.52 16.04 2.216 17.689 0 6.157 15.256" fill="none" stroke="#020064" stroke-linecap="round" stroke-linejoin="round" stroke-width="1"></path>
  <path d="m27.979 58.989 11.963 -3.77 8.233 -11.483 -14.723 -15.812" fill="none" stroke="#020064" stroke-linecap="round" stroke-linejoin="round" stroke-width="1"></path>
  <path d="M33.452 27.924 18.857 36.97l13.278 4.55 7.807 13.699 18.97 0.301L50 68.113" fill="none" stroke="#020064" stroke-linecap="round" stroke-linejoin="round" stroke-width="1"></path>
  <path d="m56.772 17.005 9.092 12.819 -14.952 0 -17.46 -1.9 -5.473 -12.973" fill="none" stroke="#020064" stroke-linecap="round" stroke-linejoin="round" stroke-width="1"></path>
  <path d="m50 5.827 -7.52 11.858 8.432 12.139 5.86 -12.819 15.249 -2.055" fill="none" stroke="#020064" stroke-linecap="round" stroke-linejoin="round" stroke-width="1"></path>
  <path d="m81.143 36.97 -15.279 -7.146 0 13.912 -14.952 -13.912 -2.737 13.912L58.912 55.52l13.109 3.472" fill="none" stroke="#020064" stroke-linecap="round" stroke-linejoin="round" stroke-width="1"></path>
  <path d="M18.857 36.97a31.143 31.143 0 1 0 62.286 0 31.143 31.143 0 1 0 -62.286 0Z" fill="none" stroke="#020064" stroke-linecap="round" stroke-linejoin="round" stroke-width="1"></path>
  <path d="M47.263 5.827a2.737 2.737 0 1 0 5.474 0 2.737 2.737 0 1 0 -5.474 0Z" fill="#ffffff" stroke="#020064" stroke-linecap="round" stroke-linejoin="round" stroke-width="1"></path>
  <path d="M69.284 14.949a2.737 2.737 0 1 0 5.474 0 2.737 2.737 0 1 0 -5.474 0Z" fill="#b0d9ff" stroke="#020064" stroke-linecap="round" stroke-linejoin="round" stroke-width="1"></path>
  <path d="M78.406 36.97a2.737 2.737 0 1 0 5.474 0 2.737 2.737 0 1 0 -5.474 0Z" fill="#ffffff" stroke="#020064" stroke-linecap="round" stroke-linejoin="round" stroke-width="1"></path>
  <path d="M69.284 58.992a2.737 2.737 0 1 0 5.474 0 2.737 2.737 0 1 0 -5.474 0Z" fill="#ffffff" stroke="#020064" stroke-linecap="round" stroke-linejoin="round" stroke-width="1"></path>
  <path d="M47.263 68.113a2.737 2.737 0 1 0 5.474 0 2.737 2.737 0 1 0 -5.474 0Z" fill="#b0d9ff" stroke="#020064" stroke-linecap="round" stroke-linejoin="round" stroke-width="1"></path>
  <path d="M25.242 58.992a2.737 2.737 0 1 0 5.474 0 2.737 2.737 0 1 0 -5.474 0Z" fill="#b0d9ff" stroke="#020064" stroke-linecap="round" stroke-linejoin="round" stroke-width="1"></path>
  <path d="M37.606 55.219a2.737 2.737 0 1 0 5.474 0 2.737 2.737 0 1 0 -5.474 0Z" fill="#ffffff" stroke="#020064" stroke-linecap="round" stroke-linejoin="round" stroke-width="1"></path>
  <path d="M28.463 27.924a4.989 4.989 0 1 0 9.978 0 4.989 4.989 0 1 0 -9.978 0Z" fill="#ffffff" stroke="#020064" stroke-linecap="round" stroke-linejoin="round" stroke-width="1"></path>
  <path d="M63.127 43.736a2.737 2.737 0 1 0 5.474 0 2.737 2.737 0 1 0 -5.474 0Z" fill="#b0d9ff" stroke="#020064" stroke-linecap="round" stroke-linejoin="round" stroke-width="1"></path>
  <path d="M29.398 41.52a2.737 2.737 0 1 0 5.474 0 2.737 2.737 0 1 0 -5.474 0Z" fill="#ffffff" stroke="#020064" stroke-linecap="round" stroke-linejoin="round" stroke-width="1"></path>
  <path d="M61.801 29.824a4.063 4.063 0 1 0 8.126 0 4.063 4.063 0 1 0 -8.126 0Z" fill="#ffffff" stroke="#020064" stroke-linecap="round" stroke-linejoin="round" stroke-width="1"></path>
  <path d="M45.438 43.736a2.737 2.737 0 1 0 5.474 0 2.737 2.737 0 1 0 -5.474 0Z" fill="#b0d9ff" stroke="#020064" stroke-linecap="round" stroke-linejoin="round" stroke-width="1"></path>
  <path d="M48.175 29.824a2.737 2.737 0 1 0 5.474 0 2.737 2.737 0 1 0 -5.474 0Z" fill="#b0d9ff" stroke="#020064" stroke-linecap="round" stroke-linejoin="round" stroke-width="1"></path>
  <path d="M53.984 55.52a4.928 4.928 0 1 0 9.856 0 4.928 4.928 0 1 0 -9.856 0Z" fill="#ffffff" stroke="#020064" stroke-linecap="round" stroke-linejoin="round" stroke-width="1"></path>
  <path d="M54.035 17.005a2.737 2.737 0 1 0 5.474 0 2.737 2.737 0 1 0 -5.474 0Z" fill="#ffffff" stroke="#020064" stroke-linecap="round" stroke-linejoin="round" stroke-width="1"></path>
  <path d="M39.743 17.685a2.737 2.737 0 1 0 5.474 0 2.737 2.737 0 1 0 -5.474 0Z" fill="#b0d9ff" stroke="#020064" stroke-linecap="round" stroke-linejoin="round" stroke-width="1"></path>
  <path d="M16.12 36.97a2.737 2.737 0 1 0 5.474 0 2.737 2.737 0 1 0 -5.474 0Z" fill="#b0d9ff" stroke="#020064" stroke-linecap="round" stroke-linejoin="round" stroke-width="1"></path>
  <path d="M25.242 14.949a2.737 2.737 0 1 0 5.474 0 2.737 2.737 0 1 0 -5.474 0Z" fill="#ffffff" stroke="#020064" stroke-linecap="round" stroke-linejoin="round" stroke-width="1"></path>
</svg>