<svg xmlns="http://www.w3.org/2000/svg" fill="none" viewBox="0 0 100 100" id="Avatar-Network--Streamline-Free-Illustrations">
  <desc>
    Avatar Network Streamline Illustration: https://streamlinehq.com
  </desc>
  <path stroke="#020064" stroke-linecap="round" stroke-linejoin="round" d="m53.92 85.248 7.891 -2.984" stroke-width="1"></path>
  <path stroke="#020064" stroke-linecap="round" stroke-linejoin="round" d="m13.901 43.104 12.566 32.49" stroke-width="1"></path>
  <path stroke="#020064" stroke-linecap="round" stroke-linejoin="round" d="M48.068 15.224 34.25 22.852" stroke-width="1"></path>
  <path stroke="#020064" stroke-linecap="round" stroke-linejoin="round" d="m14.938 38.564 14.669 -12.499" stroke-width="1"></path>
  <path stroke="#020064" stroke-linecap="round" stroke-linejoin="round" d="M63.607 18.932 53.18 14.884" stroke-width="1"></path>
  <path stroke="#020064" stroke-linecap="round" stroke-linejoin="round" d="m72.85 27.118 -4.674 -5.072" stroke-width="1"></path>
  <path stroke="#020064" stroke-linecap="round" stroke-linejoin="round" d="m83.934 32.35 -6.477 -2.223" stroke-width="1"></path>
  <path stroke="#020064" stroke-linecap="round" stroke-linejoin="round" d="m78.826 55.848 -7.438 17.248" stroke-width="1"></path>
  <path stroke="#020064" stroke-linecap="round" stroke-linejoin="round" d="m84.575 72.491 -9.477 4.271" stroke-width="1"></path>
  <path stroke="#020064" stroke-linecap="round" stroke-linejoin="round" d="m34.579 23.873 28.858 -3.565" stroke-width="1"></path>
  <path stroke="#020064" stroke-linecap="round" stroke-linejoin="round" d="m30.863 65.217 -2.661 10.277" stroke-width="1"></path>
  <path stroke="#020064" stroke-linecap="round" stroke-linejoin="round" d="m14.73 42.587 15.01 17.718" stroke-width="1"></path>
  <path stroke="#020064" stroke-linecap="round" stroke-linejoin="round" d="M49.013 83.586 33.381 64.658" stroke-width="1"></path>
  <path stroke="#020064" stroke-linecap="round" stroke-linejoin="round" d="m39.155 40.565 9.286 -1.822" stroke-width="1"></path>
  <path stroke="#020064" stroke-linecap="round" stroke-linejoin="round" d="m65.441 22.679 -7.384 24.73" stroke-width="1"></path>
  <path stroke="#020064" stroke-linecap="round" stroke-linejoin="round" d="m79.091 42.381 -3.435 -10.479" stroke-width="1"></path>
  <path stroke="#020064" stroke-linecap="round" stroke-linejoin="round" d="m52.992 47.167 -1.218 -6.186" stroke-width="1"></path>
  <path stroke="#020064" stroke-linecap="round" stroke-linejoin="round" d="m53.88 39.203 20.723 7.868" stroke-width="1"></path>
  <path stroke="#020064" stroke-linecap="round" stroke-linejoin="round" d="m86.442 68.579 -3.26 -12.425" stroke-width="1"></path>
  <path stroke="#020064" stroke-linecap="round" stroke-linejoin="round" d="m64.781 73.56 -4.255 -6.994" stroke-width="1"></path>
  <path stroke="#020064" stroke-linecap="round" stroke-linejoin="round" d="M48.502 85.346 30.18 79.15" stroke-width="1"></path>
  <path stroke="#020064" stroke-linecap="round" stroke-linejoin="round" d="m44.672 59.622 -10.324 2.245" stroke-width="1"></path>
  <path stroke="#020064" stroke-linecap="round" stroke-linejoin="round" d="m85.771 35.981 -1.992 6.367" stroke-width="1"></path>
  <path stroke="#020064" stroke-linecap="round" stroke-linejoin="round" d="M51.226 41.034a2.838 2.838 0 1 0 0 -5.676 2.838 2.838 0 0 0 0 5.676" stroke-width="1"></path>
  <path stroke="#020064" stroke-linecap="round" stroke-linejoin="round" d="M61.074 48.866 73.15 31.533" stroke-width="1"></path>
  <path stroke="#020064" stroke-linecap="round" stroke-linejoin="round" d="m36.921 45.31 9.353 6.314" stroke-width="1"></path>
  <path stroke="#020064" stroke-linecap="round" stroke-linejoin="round" d="m31.874 32.894 -0.068 -5.837" stroke-width="1"></path>
  <path stroke="#020064" stroke-linecap="round" stroke-linejoin="round" d="m36.769 34.72 12.209 -18.493" stroke-width="1"></path>
  <path stroke="#020064" stroke-linecap="round" stroke-linejoin="round" d="m24.904 41.375 -9.231 -0.781" stroke-width="1"></path>
  <path stroke="#020064" stroke-linecap="round" stroke-linejoin="round" d="m31.875 47.275 -0.244 12.358" stroke-width="1"></path>
  <path stroke="#020064" stroke-linecap="round" stroke-linejoin="round" d="M74.772 32.043a2.838 2.838 0 1 0 0 -5.676 2.838 2.838 0 0 0 0 5.676" stroke-width="1"></path>
  <path stroke="#020064" stroke-linecap="round" stroke-linejoin="round" d="M86.619 36.11a2.838 2.838 0 1 0 0 -5.676 2.838 2.838 0 0 0 0 5.676" stroke-width="1"></path>
  <path stroke="#020064" stroke-linecap="round" stroke-linejoin="round" d="M87.162 74.163a2.838 2.838 0 1 0 0 -5.676 2.838 2.838 0 0 0 0 5.676" stroke-width="1"></path>
  <path stroke="#020064" stroke-linecap="round" stroke-linejoin="round" d="M66.253 22.798a2.838 2.838 0 1 0 0 -5.676 2.838 2.838 0 0 0 0 5.676" stroke-width="1"></path>
  <path stroke="#020064" stroke-linecap="round" stroke-linejoin="round" d="M31.762 27.058a2.838 2.838 0 1 0 0 -5.676 2.838 2.838 0 0 0 0 5.676" stroke-width="1"></path>
  <path stroke="#020064" stroke-linecap="round" stroke-linejoin="round" d="M12.838 43.31a2.838 2.838 0 1 0 0 -5.676 2.838 2.838 0 0 0 0 5.676" stroke-width="1"></path>
  <path stroke="#020064" stroke-linecap="round" stroke-linejoin="round" d="M50.541 16.697a2.838 2.838 0 1 0 0 -5.676 2.838 2.838 0 0 0 0 5.676" stroke-width="1"></path>
  <path stroke="#020064" stroke-linecap="round" stroke-linejoin="round" d="M51.226 88.979a2.838 2.838 0 1 0 0 -5.676 2.838 2.838 0 0 0 0 5.676" stroke-width="1"></path>
  <path stroke="#020064" stroke-linecap="round" stroke-linejoin="round" d="M27.491 81.079a2.838 2.838 0 1 0 0 -5.676 2.838 2.838 0 0 0 0 5.676" stroke-width="1"></path>
  <path stroke="#020064" stroke-linecap="round" stroke-linejoin="round" d="M31.575 65.308a2.838 2.838 0 1 0 0 -5.676 2.838 2.838 0 0 0 0 5.676" stroke-width="1"></path>
  <path stroke="#020064" stroke-linecap="round" stroke-linejoin="round" d="M31.98 47.276a7.191 7.191 0 1 0 0 -14.382 7.191 7.191 0 0 0 0 14.382" stroke-width="1"></path>
  <path stroke="#020064" stroke-linecap="round" stroke-linejoin="round" d="M29.666 39.918a2.314 2.314 0 1 0 4.628 0v-1.157a2.314 2.314 0 0 0 -4.628 0z" stroke-width="1"></path>
  <path stroke="#020064" stroke-linecap="round" stroke-linejoin="round" d="M36.787 45.433a7.19 7.19 0 0 1 -9.612 0 5.206 5.206 0 0 1 9.607 -0.008" stroke-width="1"></path>
  <path stroke="#020064" stroke-linecap="round" stroke-linejoin="round" d="M29.685 38.463a2.314 2.314 0 0 1 4.217 -0.99 4.218 4.218 0 0 1 -4.217 0.99" stroke-width="1"></path>
  <path stroke="#020064" stroke-linecap="round" stroke-linejoin="round" d="M55.033 68.104c5.836 0 10.567 -4.731 10.567 -10.567S60.869 46.97 55.033 46.97s-10.567 4.731 -10.567 10.567 4.731 10.567 10.567 10.567" stroke-width="1"></path>
  <path stroke="#020064" stroke-linecap="round" stroke-linejoin="round" d="M51.633 57.292a3.4 3.4 0 0 0 6.8 0v-1.7a3.4 3.4 0 0 0 -6.8 0z" stroke-width="1"></path>
  <path stroke="#020064" stroke-linecap="round" stroke-linejoin="round" d="M62.1 65.4a10.567 10.567 0 0 1 -14.124 0 7.649 7.649 0 0 1 14.116 -0.012" stroke-width="1"></path>
  <path stroke="#020064" stroke-linecap="round" stroke-linejoin="round" d="M51.661 55.154a3.4 3.4 0 0 1 6.2 -1.454 6.2 6.2 0 0 1 -6.2 1.454" stroke-width="1"></path>
  <path stroke="#020064" stroke-linecap="round" stroke-linejoin="round" d="M81.484 56.356a7.191 7.191 0 1 0 0 -14.382 7.191 7.191 0 0 0 0 14.382" stroke-width="1"></path>
  <path stroke="#020064" stroke-linecap="round" stroke-linejoin="round" d="M79.171 49a2.314 2.314 0 1 0 4.629 0v-1.159a2.314 2.314 0 1 0 -4.627 0z" stroke-width="1"></path>
  <path stroke="#020064" stroke-linecap="round" stroke-linejoin="round" d="M86.292 54.513a7.192 7.192 0 0 1 -9.613 0 5.206 5.206 0 0 1 9.607 -0.008" stroke-width="1"></path>
  <path stroke="#020064" stroke-linecap="round" stroke-linejoin="round" d="M79.19 47.542a2.313 2.313 0 0 1 4.216 -0.989 4.212 4.212 0 0 1 -4.216 0.989" stroke-width="1"></path>
  <path stroke="#020064" stroke-linecap="round" stroke-linejoin="round" d="M68.531 86.888a7.191 7.191 0 1 0 0 -14.382 7.191 7.191 0 0 0 0 14.382" stroke-width="1"></path>
  <path stroke="#020064" stroke-linecap="round" stroke-linejoin="round" d="M66.217 79.531a2.314 2.314 0 1 0 4.627 0v-1.157a2.314 2.314 0 1 0 -4.627 0z" stroke-width="1"></path>
  <path stroke="#020064" stroke-linecap="round" stroke-linejoin="round" d="M73.338 85.046a7.19 7.19 0 0 1 -9.612 0 5.205 5.205 0 0 1 9.606 -0.008" stroke-width="1"></path>
  <path stroke="#020064" stroke-linecap="round" stroke-linejoin="round" d="M66.236 78.075a2.313 2.313 0 0 1 4.216 -0.989 4.214 4.214 0 0 1 -4.216 0.989" stroke-width="1"></path>
  <path stroke="#020064" stroke-linecap="round" stroke-linejoin="round" d="m84.554 70.206 -19.808 -8.501" stroke-width="1"></path>
  <path stroke="#020064" stroke-linecap="round" stroke-linejoin="round" d="m53.616 68.01 -2.005 15.319" stroke-width="1"></path>
  <path stroke="#020064" stroke-linecap="round" stroke-linejoin="round" d="M53.031 36.006 64.449 22.15" stroke-width="1"></path>
</svg>